<?xml version="1.0" encoding="utf-8"?>
<!-- Generator: Adobe Illustrator 16.0.0, SVG Export Plug-In . SVG Version: 6.00 Build 0)  -->
<!DOCTYPE svg PUBLIC "-//W3C//DTD SVG 1.1//EN" "http://www.w3.org/Graphics/SVG/1.1/DTD/svg11.dtd">
<svg version="1.1"
	 id="svg3037" xmlns:dc="http://purl.org/dc/elements/1.1/" xmlns:cc="http://creativecommons.org/ns#" xmlns:rdf="http://www.w3.org/1999/02/22-rdf-syntax-ns#" xmlns:svg="http://www.w3.org/2000/svg" xmlns:sodipodi="http://sodipodi.sourceforge.net/DTD/sodipodi-0.dtd" xmlns:inkscape="http://www.inkscape.org/namespaces/inkscape" sodipodi:docname="debian.svg" inkscape:version="0.48.5 r10040"
	 xmlns="http://www.w3.org/2000/svg" xmlns:xlink="http://www.w3.org/1999/xlink" x="0px" y="0px" width="512px" height="512px"
	 viewBox="0 0 512 512" enable-background="new 0 0 512 512" xml:space="preserve">
<sodipodi:namedview  fit-margin-left="0" fit-margin-top="0" inkscape:cy="221.14754" inkscape:cx="467.41031" inkscape:zoom="0.70710678" showguides="true" showgrid="false" id="base" pagecolor="#ffffff" bordercolor="#666666" borderopacity="1.0" fit-margin-bottom="0" fit-margin-right="0" inkscape:window-maximized="1" inkscape:snap-global="false" inkscape:current-layer="layer1" inkscape:window-y="0" inkscape:guide-bbox="true" inkscape:window-x="0" inkscape:pageopacity="0.0" inkscape:pageshadow="2" inkscape:window-width="1920" inkscape:window-height="1030">
	<sodipodi:guide  position="-34.980469,63.996094" orientation="0,1" id="guide3111"></sodipodi:guide>
</sodipodi:namedview>
<g id="layer1" transform="translate(-100.75915,-484.95513)" inkscape:label="Layer 1" inkscape:groupmode="layer">
	<path id="path3296" inkscape:connector-curvature="0" d="M152.769,651.771c2.641-8.107,3.12-12.977,4.128-17.668
		C149.598,643.434,153.539,645.423,152.769,651.771 M169.626,595.491c1.313,12.161-9.149,16.88,2.317,8.862
		C178.09,590.509,169.542,600.53,169.626,595.491 M366.361,489.078c5.7-2.088,14.014-1.145,20.061-2.519
		c-7.881,0.661-15.726,1.055-23.471,2.055L366.361,489.078 M549.523,716.05l-1.239,3.105c-2.271,16.13-7.173,32.091-14.688,46.888
		C541.899,750.43,547.271,733.352,549.523,716.05 M317.743,766.428c-2.933-3.242-4.668-7.146-6.61-11.035
		c1.857,6.836,5.663,12.709,9.205,18.682L317.743,766.428 M304.643,766.943l-1.182,5.911c5.541,7.525,9.937,15.679,17.012,21.562
		C315.383,784.48,311.601,780.375,304.643,766.943 M513.98,706.385c0.502,13.633-3.988,20.249-8.037,31.958l-7.286,3.641
		c-5.963,11.578,0.577,7.352-3.691,16.561c-9.309,8.276-28.248,25.898-34.31,27.507c-4.424-0.099,2.998-5.222,3.969-7.229
		c-12.46,8.557-9.997,12.846-29.055,18.043l-0.558-1.238c-47,22.111-112.288-21.707-111.429-81.496
		c-0.502,3.795-1.426,2.848-2.468,4.382c-2.426-30.762,14.206-61.661,42.257-74.276c27.436-13.582,59.601-8.008,79.254,10.307
		c-10.796-14.14-32.282-29.129-57.748-27.727c-24.945,0.394-48.281,16.247-56.069,33.455c-12.78,8.046-14.262,31.016-19.831,35.219
		c-7.492,55.064,14.093,78.855,50.607,106.841c5.748,3.875,1.619,4.461,2.398,7.412c-12.133-5.682-23.242-14.258-32.376-24.758
		c4.846,7.094,10.077,13.99,16.838,19.409c-11.438-3.875-26.718-27.718-31.18-28.688c19.719,35.304,80,61.914,111.564,48.712
		c-14.604,0.54-33.16,0.3-49.57-5.766c-6.893-3.547-16.266-10.894-14.591-12.269c43.077,16.092,87.577,12.189,124.851-17.691
		c9.482-7.385,19.841-19.949,22.834-20.122c-4.509,6.779,0.77,3.261-2.693,9.247c9.449-15.238-4.104-6.202,9.769-26.314l5.123,7.056
		c-1.905-12.648,15.707-28.009,13.92-48.013c4.039-6.118,4.508,6.582,0.22,20.657c5.949-15.613,1.567-18.123,3.097-31.006
		c1.651,4.331,3.819,8.933,4.931,13.502c-3.875-15.088,3.979-25.409,5.921-34.178c-1.914-0.849-5.981,6.671-6.91-11.152
		c0.136-7.741,2.153-4.058,2.932-5.963c-1.52-0.873-5.508-6.808-7.934-18.189c1.76-2.674,4.701,6.934,7.094,7.328
		c-1.538-9.05-4.189-15.951-4.297-22.895c-6.99-14.609-2.473,1.947-8.145-6.272c-7.44-23.209,6.174-5.386,7.094-15.932
		c11.278,16.34,17.71,41.665,20.661,52.155c-2.252-12.789-5.893-25.179-10.336-37.166c3.426,1.44-5.517-26.315,4.453-7.934
		c-10.65-39.184-45.578-75.796-77.711-92.977c3.932,3.599,8.896,8.116,7.112,8.825c-15.979-9.514-13.169-10.255-15.458-14.276
		c-13.02-5.296-13.873,0.427-22.496,0.01c-24.537-13.014-29.266-11.63-51.846-19.784l1.027,4.8
		c-16.257-5.414-18.94,2.055-36.51,0.019c-1.07-0.835,5.629-3.021,11.143-3.823c-15.717,2.073-14.98-3.097-30.359,0.572
		c3.791-2.66,7.797-4.419,11.841-6.681c-12.817,0.778-30.598,7.459-25.109,1.384c-20.905,9.327-58.034,22.421-78.869,41.956
		l-0.657-4.377c-9.547,11.461-41.633,34.229-44.189,49.073l-2.552,0.596c-4.968,8.412-8.182,17.945-12.123,26.601
		c-6.498,11.072-9.524,4.26-8.6,5.996c-12.78,25.911-19.127,47.685-24.612,65.541c3.908,5.841,0.094,35.163,1.572,58.63
		c-6.418,115.899,81.342,228.431,177.27,254.412c14.061,5.029,34.971,4.837,52.756,5.354c-20.985-6.001-23.696-3.181-44.138-10.308
		c-14.746-6.943-17.978-14.872-28.421-23.937l4.133,7.305c-20.483-7.248-11.912-8.97-28.576-14.248l4.415-5.766
		c-6.639-0.502-17.584-11.189-20.577-17.105l-7.263,0.286c-8.726-10.767-13.375-18.526-13.038-24.536l-2.346,4.18
		c-2.66-4.564-32.104-40.38-16.829-32.043c-2.838-2.594-6.61-4.223-10.701-11.654l3.11-3.556
		c-7.352-9.458-13.53-21.581-13.061-25.62c3.922,5.297,6.643,6.287,9.336,7.191c-18.564-46.061-19.606-2.537-33.667-46.887
		l2.975-0.239c-2.28-3.435-3.664-7.164-5.499-10.823l1.295-12.902c-13.366-15.453-3.739-65.709-1.811-93.271
		c1.337-11.208,11.156-23.139,18.625-41.849l-4.551-0.783c8.698-15.173,49.665-60.934,68.637-58.579
		c9.191-11.546-1.825-0.042-3.622-2.951c20.188-20.891,26.535-14.759,40.159-18.517c14.694-8.722-12.61,3.401-5.644-3.327
		c25.4-6.488,18.001-14.75,51.138-18.043c3.495,1.989-8.112,3.073-11.025,5.653c21.163-10.354,66.972-7.999,96.726,5.747
		c34.524,16.134,73.314,63.828,74.844,108.703l1.74,0.469c-0.882,17.837,2.73,38.466-3.527,57.415L513.98,706.385 M373.684,495.624
		l-3.181,0.657l2.961-0.263L373.684,495.624 M364.695,493.123c4.5,0.807,9.721,1.427,8.989,2.501
		C378.605,494.545,379.722,493.55,364.695,493.123 M458.615,700.63c1.019-15.182-2.988-10.383-4.335-4.588
		C455.852,696.857,457.095,706.743,458.615,700.63 M441.913,744.092c5.02-6.929,8.679-14.516,9.969-22.36
		c-1.126,5.592-4.161,10.42-7.019,15.515c-15.759,9.923-1.482-5.893-0.01-11.902C427.908,746.672,442.527,738.134,441.913,744.092
		 M396.662,755.37c-8.431,0.118,1.595,4.345,12.602,6.038c3.04-2.373,5.799-4.775,8.257-7.112
		C410.666,755.976,403.69,756.014,396.662,755.37"/>
</g>
</svg>
