<?xml version="1.0" encoding="utf-8"?>
<!-- Generator: Adobe Illustrator 16.0.0, SVG Export Plug-In . SVG Version: 6.00 Build 0)  -->
<!DOCTYPE svg PUBLIC "-//W3C//DTD SVG 1.1//EN" "http://www.w3.org/Graphics/SVG/1.1/DTD/svg11.dtd">
<svg version="1.1" id="Layer_1" xmlns="http://www.w3.org/2000/svg" xmlns:xlink="http://www.w3.org/1999/xlink" x="0px" y="0px"
	 width="800px" height="800px" viewBox="0 0 800 800" enable-background="new 0 0 800 800" xml:space="preserve">
<g>
	<path fill="#010101" d="M400.2,256.7c60,0,111.1,37.9,130.9,91h246.2C753.3,160.6,593.6,16.2,400,16.2S46.7,160.6,22.8,347.7h246.6
		C289.1,294.5,340.2,256.7,400.2,256.7z"/>
	<path fill="#010101" d="M530.4,446.2c-20.1,52.3-70.9,89.5-130.3,89.5c-59.4,0-110.2-37.2-130.3-89.5H22.8
		C47.2,632.8,206.7,776.8,400,776.8c193.3,0,352.7-144,377.2-330.6H530.4L530.4,446.2z"/>
	<path fill="#010101" d="M400,316.1c44.4,0,80.4,36,80.4,80.4c0,44.4-36,80.4-80.4,80.4s-80.4-36-80.4-80.4
		C319.6,352.1,355.6,316.1,400,316.1z"/>
</g>
</svg>
